PathFileType	4	(X/Y/Z)	62_2_13_p0_0-1247_filt_butterworth.trc
DataRate	CameraRate	NumFrames	NumMarkers	Units	OrigDataRate	OrigDataStartFrame	OrigNumFrames
59.0	59.0	7	27	m	59.0	311	1247
Frame#	Time	RHip			RKnee			RAnkle			RBigToe			RSmallToe			RHeel			LHip			LKnee			LAnkle			LBigToe			LSmallToe			LHeel			Neck			Head			Nose			RShoulder			RElbow			RWrist			RThumb			RIndex			RPinky			LShoulder			LElbow			LWrist			LThumb			LIndex			LPinky			
		X1	Y1	Z1	X2	Y2	Z2	X3	Y3	Z3	X4	Y4	Z4	X5	Y5	Z5	X6	Y6	Z6	X7	Y7	Z7	X8	Y8	Z8	X9	Y9	Z9	X10	Y10	Z10	X11	Y11	Z11	X12	Y12	Z12	X13	Y13	Z13	X14	Y14	Z14	X15	Y15	Z15	X16	Y16	Z16	X17	Y17	Z17	X18	Y18	Z18	X19	Y19	Z19	X20	Y20	Z20	X21	Y21	Z21	X22	Y22	Z22	X23	Y23	Z23	X24	Y24	Z24	X25	Y25	Z25	X26	Y26	Z26	X27	Y27	Z27	
311	5.271186440677966	0.34468013202870174	0.29745947241948745	0.6963620994274384	0.3599844891094707	-0.10325526090557902	0.8230941133915199	0.3434469908481345	-0.4802241099620098	0.8854736144617026	0.32691881733233585	-0.5253603687851389	0.7872758929921909	0.3736898856315709	-0.5139667217672993	0.7867981764919562	0.3190708242365121	-0.5192899658060312	0.9433091877898966	0.14527628651388388	0.3095529828315094	0.7565129089515199	0.1525262922654982	-0.11683107798975534	0.8774315447049644	0.150922254756747	-0.4997245214478128	0.953330925955748	0.12114654848786495	-0.49980803195360435	0.7784832877894433	0.08523458016266854	-0.503114282827849	0.8442707855879885	0.1675341861284782	-0.5219728624922859	0.9731311049808336	0.23206491925886513	0.895834847455687	0.6334252344347445	0.2239052205287511	1.1268396207936822	0.5919706497138203	0.20585761928867208	1.012562950833277	0.5327031583495865	0.3744773871997821	0.7972688165764064	0.5507094015308692	0.44082317255651693	0.5157730638366658	0.617794702049276	0.3886064870733561	0.27266274597497386	0.5990160203053074	0.31176376940420925	0.17772685705412847	0.605744541032501	0.323630093885366	0.16473678104624923	0.6139023978151993	0.37517379522865346	0.1602240443904336	0.6587362363248651	0.07217958486430492	0.8045795581452687	0.7056036201166901	0.03650312151642248	0.5386465838953435	0.7232705306789389	0.05524383772987652	0.29875604539649825	0.7115082828686006	0.09518776069907997	0.21681173306545068	0.6670797850372316	0.07945719114348895	0.18924522123891638	0.6695545525804216	0.057704183665567496	0.1804424909525265	0.738830963678869	
312	5.288135593220339	0.3444362917617353	0.29872904880467777	0.694839371407814	0.36042829726797204	-0.10339979492907558	0.8243705643924929	0.344255743214242	-0.480534268273646	0.8861104628907045	0.3268101978855956	-0.5253433385419914	0.787341704679513	0.37424038466118126	-0.5143507605514467	0.7877337881796359	0.3191973469503222	-0.5191289683730601	0.9429719810097724	0.14514075831457426	0.31000623461656873	0.7553530307301062	0.15281299034160775	-0.11714157366307032	0.8768077878092568	0.1516286782411555	-0.5003668688194334	0.9548568351134148	0.12106740856727216	-0.4997647879602255	0.7785474666301987	0.08522368752310919	-0.5029955503607304	0.8442180605243942	0.16713649894002885	-0.5219459089326031	0.9731461975211654	0.23206502154453798	0.8957315902695544	0.633419675108273	0.22386123564345156	1.1268630485097666	0.5919695803214149	0.20689191942761118	1.0127159966758932	0.5346760542668231	0.3738241424025184	0.7971668153350463	0.5514888857702238	0.4408714486893252	0.5159174711757628	0.6178100456324357	0.38887440072000945	0.2727079780009568	0.5989706393325103	0.3129663311183288	0.17768963928638057	0.6057854463263812	0.32465604175947466	0.16543480004539343	0.6119971299697228	0.3757788474676127	0.16100088432234227	0.6585171067813651	0.07010723150116044	0.8045803418523021	0.7029964403391178	0.03372279643433092	0.537840082862505	0.7213709548482536	0.054525217623548866	0.29806194532433505	0.7118757126321344	0.09398533601278353	0.21666775066132984	0.6649683046349413	0.0795278417020027	0.18864873022494813	0.6692191562308435	0.056751909883773086	0.1804953015170334	0.7380895371536862	
313	5.305084745762712	0.34426790766672444	0.29981261832985695	0.6933847064633458	0.36093237933704503	-0.1035516422690198	0.825509463624022	0.34488525182122864	-0.4806981228030621	0.8864192816127109	0.3266307210539735	-0.5252028915177815	0.7871536908260757	0.37433920902666346	-0.5143561970853503	0.7879186701703037	0.31928783395911464	-0.5191164713204877	0.942841229315276	0.14502597695326822	0.31035849889748185	0.7539218344708785	0.15319488357671607	-0.11739613520062497	0.8760041059346382	0.1521927116850899	-0.5008763868049417	0.9560723326840755	0.12101225356841727	-0.49988662417194135	0.778948052138682	0.08519837337210043	-0.5028060454969551	0.8441355556514928	0.16671524485682243	-0.521969759667025	0.9732879481868418	0.2320629542216815	0.8956855672382577	0.6333984313381906	0.22375886969274628	1.1268852964261908	0.5919575184334461	0.20770952443413274	1.0128353049185437	0.5362372707561143	0.3736968315225405	0.7969864502565869	0.5528351939409508	0.44096428592086856	0.5164017418150952	0.6178231627846285	0.3888845901806234	0.27256992996899254	0.5991319488888717	0.3135715715494945	0.17780479077273723	0.6058738128203435	0.3250219839617422	0.16660470803396007	0.6091844724182041	0.3758423037858887	0.16164564189363526	0.6586395219823997	0.06812017536246187	0.8045790102435799	0.7005505361561034	0.031266051379619575	0.5369258078345183	0.7199935981818157	0.053940327784055254	0.2974609044063955	0.7119794288134345	0.09307279739715643	0.21641178195233923	0.663281147695462	0.07970868416851566	0.18808715182729413	0.6679204367749269	0.05601355946641069	0.18041166405731246	0.7377093523236091	
314	5.322033898305085	0.3441815621427433	0.30067103624652536	0.6920085872869722	0.3614848511544759	-0.10375962769999197	0.8265775095349498	0.34533202758316633	-0.48071744299350544	0.8864079996062606	0.3264112356361506	-0.52505311103003	0.7867844603895245	0.37415551629514543	-0.5141949566643463	0.7877277985961021	0.31926502415581326	-0.5191357537824112	0.9427059588341862	0.14491001788679433	0.31052908779910016	0.7525590500378508	0.15362542288645287	-0.11759710360311787	0.8751320466523982	0.15250150447161367	-0.5011485525958937	0.9567315727146433	0.12102792718075422	-0.5001022855059991	0.7795440956946292	0.08518297475198447	-0.5026656499934842	0.8440771727280133	0.1662759203949834	-0.5219950969618473	0.9734318318609565	0.23206111763912157	0.8956878152909601	0.6333749580672403	0.2236844563675437	1.1268963143324566	0.5919421351148636	0.20819639500645942	1.0129049322784986	0.5371571591466258	0.3742320209067034	0.7968176280309165	0.5546051358772449	0.4410769510643813	0.5171587533181176	0.6178202892438788	0.38877943012844085	0.2722699549112415	0.5994819286816768	0.3137609379159926	0.1779595684157517	0.605906583657154	0.32494527933290906	0.16794624071688546	0.6061621921695137	0.37569720358250513	0.16215919638709603	0.6588249232118886	0.06656771305348363	0.8045753038683606	0.6986266206487994	0.0294553964914291	0.5361245673337696	0.7195015801113585	0.053590902099696816	0.2969844093389835	0.7118138294493435	0.0925860257040545	0.21599089527761553	0.6622807249120561	0.07999400483055655	0.1878377149572605	0.6658283831834071	0.05546444989551487	0.1802653142046513	0.7370368690042663	
315	5.338983050847458	0.34417220925449654	0.3013283275162776	0.6906590363313554	0.362071650100829	-0.10405259478413342	0.8276430868940425	0.34558560665749755	-0.48059128351395625	0.8860734278574417	0.32622969840432503	-0.525082370724524	0.7864057761520186	0.37393811891384476	-0.5141156368862141	0.7875812430559114	0.319112348657699	-0.5190393123434012	0.9423043349863615	0.14480769557797685	0.31054592911443535	0.7514328407771356	0.1540755795454872	-0.11773765335864839	0.8742939537995407	0.15253735469432333	-0.5011663739346283	0.9567937370690585	0.12112229130928845	-0.5001504335344025	0.7797908731202131	0.08521736025012142	-0.5027735195412063	0.8441134137246836	0.1658101721375229	-0.5219519344245952	0.9734129456115759	0.23206216293199522	0.8957057136996972	0.6333650985827973	0.22379506271392713	1.1268911549359781	0.5919476186801496	0.20833572232806286	1.0129268384885806	0.5374451666291431	0.375389297429244	0.796778359122	0.5565826290541639	0.4411949951300045	0.5181945016377224	0.6178025828514446	0.3886894761587104	0.27198769254407906	0.5997715712641571	0.3137178394558374	0.17808388496516145	0.6058610097973159	0.32476854899526997	0.1691515493406889	0.6037069219068283	0.3756196351965986	0.16261249668336755	0.6586187541816265	0.06580830960705145	0.8045695154838444	0.6975114089940528	0.028475725531077023	0.5356082988802748	0.7199018330064784	0.053518669256292783	0.29656604220432825	0.7114659993230064	0.09251287164541475	0.21537238545671467	0.6620186268442443	0.08033582551339474	0.18798399273878488	0.6632691165816573	0.055000807600177136	0.18004446397569968	0.735626415146118	
316	5.3559322033898304	0.3442337200662629	0.30181441960025346	0.6892745267422757	0.3626846590262698	-0.10440774851664719	0.828710376487403	0.345631540600066	-0.4803144391841543	0.8854033463434692	0.32614719399197223	-0.5254391091231093	0.7861674088296104	0.37382547748860456	-0.514256033865452	0.7876634404635884	0.3188505531451711	-0.5187227986742985	0.9414415768998681	0.1447639678108835	0.31050253353142365	0.7505553024979573	0.15453459062393765	-0.1177950823393707	0.8735454535319698	0.15233545736431317	-0.500962453860336	0.9563341813332789	0.12126766826393523	-0.49985005819186135	0.7792717044798114	0.08532834030851949	-0.5032570399697712	0.8442825421329542	0.16529463158813093	-0.5217860028841967	0.9731038040803824	0.23206641419904595	0.895721400607428	0.6333706376796927	0.22419446776047036	1.1268771292609878	0.5920003830736651	0.20825070331950024	1.012927836695752	0.5374408965851488	0.37700452740532375	0.7969517512830411	0.5584988679477639	0.44130389284080274	0.5194171370960373	0.6177812291099953	0.3886557344287216	0.27200993637462656	0.5995354979902507	0.3135894447343266	0.1781754179672422	0.6057762960190876	0.3247023056081355	0.1699810269895722	0.6023300591423775	0.3757243063246312	0.1630490624273588	0.6576394639781348	0.06596705205181301	0.8045640181674143	0.6972441805088092	0.028245769112189387	0.5354368103641016	0.7205875891570683	0.05362134818796435	0.2961073982870388	0.7110750726951429	0.09267816314416907	0.21458679772170683	0.6622272017448265	0.08066940647393414	0.18844366036380947	0.6605864342696319	0.054583918009590365	0.1796546397806661	0.7334773785789732	
317	5.372881355932203	0.34436292131097546	0.3021165542254972	0.6879050745332813	0.36331815732475276	-0.10477060512482667	0.8297303848207249	0.3454542564912683	-0.4798788575238352	0.884382967547128	0.32615860671602426	-0.526184763971825	0.7861637353587109	0.37379855696726116	-0.5146771981793093	0.7879365049683236	0.31848361683044335	-0.5181748794436382	0.9400655052072824	0.1448226809736783	0.3104458223063248	0.7499036152945331	0.15499999254795227	-0.11774705852049333	0.8729007214216524	0.15192772049983336	-0.500567504483658	0.9554234893049033	0.1214333767087363	-0.4993969043463352	0.7782194877856013	0.08551423088530544	-0.5040908016248405	0.8445748424991861	0.16470716690086182	-0.5214732685462252	0.9724432913788493	0.23207431912180987	0.8957320480951808	0.6333841043836372	0.22486290765466832	1.1268673127512125	0.5921110184691827	0.20812228086025153	1.0129379818068032	0.5375243894431159	0.3787900473059058	0.7973925350695749	0.5600547196759796	0.4413909557278172	0.5205643091433435	0.6177745487683333	0.3886499409920951	0.27248295683191853	0.598412423301643	0.3134790413119514	0.1782562091504261	0.6056973844011801	0.32477889613923716	0.1702897934922192	0.602082990797572	0.37597679514982685	0.1635432990981295	0.6555796182126223	0.06678681195664173	0.8045629265561839	0.697511476802607	0.02845214943565281	0.5354685228681962	0.7209589432913257	0.0537259692433172	0.2955153116936612	0.7108315427384385	0.09286420242505031	0.2137784126559145	0.6624805387366008	0.08092842025395976	0.1890458040538312	0.6581285439276011	0.054284016133534826	0.1790348287806206	0.7309256477452155	
